/* XPM */
static char *b3f1f637598f47f7f3b6e111e871f1edRrZPZMUpcTJYhYkM[] = {
/* columns rows colors chars-per-pixel */
"50 50 211 2 ",
"   c #161C2E",
".  c #1A1E2F",
"X  c #1B1E31",
"o  c #1E2131",
"O  c #242433",
"+  c #2B2434",
"@  c #232936",
"#  c #2B2A36",
"$  c #2D2539",
"%  c #2A2A38",
"&  c #322C37",
"*  c #332638",
"=  c #362D3B",
"-  c #3D2B3A",
";  c #29313B",
":  c #33323B",
">  c #3B333A",
",  c #3A363A",
"<  c #462D3B",
"1  c #41363C",
"2  c #4B323D",
"3  c #463B3D",
"4  c #4A3E3D",
"5  c #54323D",
"6  c #5C353F",
"7  c #47423E",
"8  c #4D413E",
"9  c #51423D",
"0  c #3F2C44",
"q  c #2F3D41",
"w  c #3D3241",
"e  c #383B41",
"r  c #442D44",
"t  c #473745",
"y  c #4D3E41",
"u  c #49304A",
"i  c #573849",
"p  c #5B3853",
"a  c #663A42",
"s  c #63394A",
"d  c #7A3F46",
"f  c #713D48",
"g  c #653A52",
"h  c #6B3D5A",
"j  c #723F56",
"k  c #384346",
"l  c #3A4A4A",
"z  c #3E514F",
"x  c #434444",
"c  c #4C4342",
"v  c #4E4943",
"b  c #4F464A",
"n  c #494D49",
"m  c #534343",
"M  c #594740",
"N  c #544C44",
"B  c #5E4A43",
"V  c #544A4B",
"C  c #4B534E",
"Z  c #5F5546",
"A  c #575248",
"S  c #5B554A",
"D  c #455954",
"F  c #495D55",
"G  c #5B5251",
"H  c #644E43",
"J  c #664B4B",
"K  c #6C5444",
"L  c #64574A",
"P  c #6B524A",
"I  c #745946",
"U  c #775B48",
"Y  c #755A4B",
"T  c #7A5B4E",
"R  c #794257",
"E  c #72405A",
"W  c #655B53",
"Q  c #685856",
"!  c #785652",
"~  c #795D56",
"^  c #745959",
"/  c #4B645B",
"(  c #586759",
")  c #78664E",
"_  c #6A6452",
"`  c #686955",
"'  c #766452",
"]  c #78655D",
"[  c #786A59",
"{  c #73745C",
"}  c #596E60",
"|  c #557263",
" . c #5B7463",
".. c #5C7B68",
"X. c #7E6961",
"o. c #637A66",
"O. c #7D7A64",
"+. c #844349",
"@. c #8D474B",
"#. c #894E4D",
"$. c #954A4E",
"%. c #864656",
"&. c #8F4958",
"*. c #904957",
"=. c #9C4D55",
"-. c #934B58",
";. c #825D55",
":. c #995656",
">. c #A24F53",
",. c #A65255",
"<. c #AC5255",
"1. c #A75E59",
"2. c #B65555",
"3. c #B75857",
"4. c #B95D59",
"5. c #82624B",
"6. c #8A674B",
"7. c #8C694C",
"8. c #936D4E",
"9. c #836853",
"0. c #966E51",
"q. c #99695E",
"w. c #847456",
"e. c #8B7D5C",
"r. c #977854",
"t. c #AA685E",
"y. c #BB645D",
"u. c #A27653",
"i. c #A77F55",
"p. c #AB7D54",
"a. c #876863",
"s. c #8A7565",
"d. c #96776C",
"f. c #967B6B",
"g. c #BD6B61",
"h. c #A47062",
"j. c #AF7566",
"k. c #A27668",
"l. c #BA7B6A",
"z. c #C17768",
"x. c #C27868",
"c. c #62836D",
"v. c #73876B",
"b. c #678972",
"n. c #6C9076",
"m. c #6E9378",
"M. c #739477",
"N. c #72977A",
"B. c #759B7C",
"V. c #7C9F7D",
"C. c #7CA07E",
"Z. c #8D805E",
"A. c #93825D",
"S. c #9D865D",
"D. c #A5855C",
"F. c #AB8E5F",
"G. c #B38355",
"H. c #B38959",
"J. c #BB925E",
"K. c #928864",
"L. c #9D846E",
"P. c #9A966C",
"I. c #9F8171",
"U. c #A28C6F",
"Y. c #BA9D68",
"T. c #A68574",
"R. c #AC8B76",
"E. c #AF8C79",
"W. c #B28F7A",
"Q. c #AE9475",
"!. c #B5937A",
"~. c #B49678",
"^. c #BE9B7E",
"/. c #BDA27A",
"(. c #C5826E",
"). c #C99F63",
"_. c #CDA467",
"`. c #CCAF77",
"'. c #7CA583",
"]. c #81A681",
"[. c #83AB85",
"{. c #82AE88",
"}. c #85B28A",
"|. c #8DB58A",
" X c #89B88E",
".X c #8DBD91",
"XX c #C29F80",
"oX c #C6A481",
"OX c #CBAC82",
"+X c #D0AD84",
"@X c #D5B486",
"#X c #D5B689",
"$X c #D9B788",
"%X c #D6B98C",
"&X c #DCBB8A",
"*X c #E0BE8B",
"=X c #93C596",
"-X c #98C796",
";X c #9DCA97",
":X c #9FCC98",
">X c #D9C08C",
",X c #E3C28C",
"<X c #E5C790",
"1X c #E7CB93",
"2X c #E8CE94",
"3X c #E9D296",
"4X c #EBD599",
"5X c #EDDB9D",
"6X c #EFE0A0",
"7X c #F2E8A4",
"8X c #F3EAA6",
/* pixels */
"-X=X=X=X=X=X=X=X=X=X=X=X=X=X=X=X=X=X=X=X=X=X=X=X=X=X=X=X=X=X=X=X=X=X=X=X=X=X=X=X=X=X=X=X=X=X=X=X=X-X",
":X-X=X=X=X=X=X=X=X=X=X=X=X=X=X=X=X=X=X=X=X=X=X=X=X=X=X=X=X=X=X=X=X=X=X=X=X=X=X=X=X=X=X=X=X=X=X=X-X;X",
":X;X-X=X=X=X=X=X=X=X=X=X=X=X=X=X=X=X=X=X-X=X=X=X=X=X=X=X=X=X=X=X=X=X=X=X=X=X=X=X=X=X=X=X=X=X=X-X;X:X",
":X:X:X-X=X=X=X=X=X=X=X=X=X=X=X=X=X=X=X=X=X=X=Xc.B.=X=Xn.'.=X=X=X=X=X=X=X=X=X=X=X=X=X=X=X=X=X-X:X:X:X",
":X:X:X:X-X=X=X=X=X=X=X=X=X=X=X=X=X=X=X=X=X=X| P.{ n.'.` O.'.=X=X=X=X=X=X=X=X=X=X=X=X=X=X=X-X:X:X:X:X",
":X:X:X:X;X-X=X=X=X=X=X=X=X=X=X=X=X=X=X}.o. .D A.S...n A.P.M.=X=X=X=X=X=X=X=X=X=X=X=X=X=X-X;X:X:X:X:X",
":X:X:X:X:X;X-X=X=X=X=X=X=X=X=X=X=X=X=X .P.{ z G.H.k S._.L }.=X=X=X=X=X=X=X=X=X-X=X=X=X-X;X:X:X:X:X:X",
":X:X:X:X:X:X:X-X=X=X=X=X=X=X=X=X=X=X=Xk S `.Z 8.).M _.H.% B.=X=X=X=X=X=X=X=X=X=X=X=X-X:X:X:X:X:X:X:X",
":X:X:X:X:X:X:X:X-X=X=X=XB.| }.=X=XB.s.! 1 i.S.S F.e.S.v ! ! O.'.=X=Xn.| }.=X=X=X=X-X:X:X:X:X:X:X:X:X",
":X:X:X:X:X:X:X:X;X-X=X}.Y r.F c.G h.(.(.^ ) `.x c B S.3 h.(.(.;.( '.S e.( =X=X=X-X;X:X:X:X:X:X:X:X:X",
":X:X:X:X:X:X:X:X:X:X-X..m D.= J l.x.(.j.= , I 8 , e.N   y h.(.4.=.t m D., }.=X-X:X:X:X:X:X:X:X:X:X:X",
":X:X:X:X:X:X:X:X:X:X:X( B t h y.y.g.(.l.h.P O M Y > = q.(.(.x.4.2.%.i y K B.-X:X:X:X:X:X:X:X:X:X:X:X",
":X:X:X:X:X:X:X:X:X:X:XC.= p :.g.y.y.y.- ;.(.! m q.h.(.(.(.(.z.4.2.<.h i O -X;X:X:X:X:X:X:X:X:X:X:X:X",
":X:X:X:X:X:X:X:X:X:X:Xq = p <.2.3.:.- + y l.l.(.(.(.(.(.(.(.1.+.2.2.E = O M.:X:X:X:X:X:X:X:X:X:X:X:X",
":X:X:X:X:X:X:X:X:X:X .b a.% $ a 2.2.< = :.h.(.(.(.g.3.g.y.,.- $.2.2.<.# a.e =X:X:X:X:X:X:X:X:X:X:X:X",
":X:X:X:X:X:X:X:X:XC.y a.a.w h 6 <.* m j.,.y.(.(.g.g.(.y.3.g.t.- @.6 2 > s.^ q :X:X:X:X:X:X:X:X:X:X:X",
":X:X:X:X:X:X:X:X:X} s.E.a.< E = $ 1 1.4.g.y.(.g.2.y.3.2.2.2.4.* O % T.oX!.T.b C.:X:X:X:X:X:X:X:X:X:X",
":X:X:X:X:X:X:X|.{ A s.E.f.+.+.&.g a 4.(.y.y.4.2.2.=.2.2.2.2.+.r h - R.,X!.E.V S v.:X:X:X:X:X:X:X:X:X",
":X:X:X:X:X:X:X} F.w.V E.R.V W +.R $ <.z.2.2.a t f -.g $.2.2.>.$ %.f s.,X!.f.Z ) F.C.:X:X:X:X:X:X:X:X",
":X:X:X:X:X:X:XF 9.D.3 Q.,X&XQ >.=.* @.4.2.<.V ^.G w b t 6 @.2.i ] Q T.<X&Xs.B J.v C.:X:X:X:X:X:X:X:X",
":X:X:X:X:X:X:XF T u.N Q.,X,Xs.a 2 $ - 2.5 > @X&X#X#X+X~.X.: * y $X1X1X4X1XS I u.m C.:X:X:X:X:X:X:X:X",
":X:X:X:X:X:X:Xv > 4 e.f.,X6XOX] R.^.b 2 ] oX,X1X4X5X5X2X,X,X^.f.*X8X8X1X@X' 9.4 '  .:X:X:X:X:X:X:X:X",
":X:X:X:X:X:X:Xn [ e.n I.<X5X>XOX@X*XL.R.&X,X1X8X8X6X4X3X,X1X<X,XOXOX2X<X@X] 3 w._ o.:X:X:X:X:X:X:X:X",
":X:X:X:X:X:X:X( H I.^.%X5X6XW L N U.,X3X4X,X1X3X,X,X3X4X5X8X1X[ L 7 s.,X,XoX!.] 3 [.:X:X:X:X:X:X:X:X",
":X:X:X:X:X:X:XC.b !.$X,X4XOXZ r.w.[ ,X3X4X6X8X8X5X,X2X8X5X3X,X_ ) Y.c 4X4X,XOXR.  :X:X:X:X:X:X:X:X:X",
":X:X:X:X:X:X:X:X% E.W.&X,XQ.O r.c : OX,X5X6X5X<X,X1X8X6X2X,XU.: T 6.# @X,X@XE.E.# :X:X:X:X:X:X:X:X:X",
":X:X:X:X:X:X:X:X  R.d.W @Xs.8 B 7 Z.OX,X2X<X,X$XoXoX#X1X4X1XU.e.8 8 H OX,X^.R.E.b :X:X:X:X:X:X:X:X:X",
":X:X:X:X:X:X:X:Xq a.~ % c s.w.9.K.9 OX,X,X$X!.!.E.^.<X5X3X,Xs._ e.K.L OXQ.^ ^ E.: :X:X:X:X:X:X:X:X:X",
":X:X:X:X:X:X:X:X .Q o o . W f.L ' T.Q.c % ^ k.^.`.%X8X2X@X!.$X] 9.W Q , #     G F :X:X:X:X:X:X:X:X:X",
":X:X:X:X:X:X:X:X|.q l 1 1   L.XXXX[   o ^ T.XX$XXX,X1X<X^.E.Q.L.~.L.+ o m @ [.F M.:X:X:X:X:X:X:X:X:X",
":X:X:X:X:X:X:X:X:X:XC.y m o & Q.e 1 y y > : x L.+X,X,X@Xf.e 3 > # P B O J k :X:X:X:X:X:X:X:X:X:X:X:X",
":X:X:X:X:X:X:X:X:X:XC.B H O P o 3 c 1 1 1 3   : `.,X,XL.% # c 1 P 9.T & T x :X:X:X:X:X:X:X:X:X:X:X:X",
":X:X:X:X:X:X:X:X:X:XC.& P # 5.> # K ) W j 5 < $ : /.s.$ u ) v Y O 1 7.& T ; :X:X:X:X:X:X:X:X:X:X:X:X",
":X:X:X:X:X:X:X:X:X:X=Xx 9.3 T K 5.N Y.0 >.<.=.&.R w r E %.V Y.v p.> 0.y ;.D :X:X:X:X:X:X:X:X:X:X:X:X",
":X:X:X:X:X:X:X:X:X:X|.; Y 3 G.4 O { N j >.2.%.=.-.h h ,.>.u M v > K u.y B z |.;X:X:X:X:X:X:X:X:X:X:X",
":X:X:X:X:X:X:X:X:XB.M.k Y Y G.0.B m H h %.2.2.,.2.h -.z.2.s [ 3 Y u.u.T m / M.-X:X:X:X:X:X:X:X:X:X:X",
":X:X:X:X:X:X:X:X;XB.M.l T K G.0.8.B p =.2.2.2.2.2.f <.y.2.-.u H 0.u.8.T m  .M.].:X:X:X:X:X:X:X:X:X:X",
":X:X:X:X:X:X:X:X|.M.M.l P H r.5.p.H g <.&.y.2.>.$.6 6 =.<.2.s 5.u.5.M T 1  .M.M.:X:X:X:X:X:X:X:X:X:X",
":X:X:X:X:X:X:X:X;XV.M.F H y 8.Y p.H s <.R g.2.=.f $ O *.2.2.d 5.r.I M P > c.n.M.}.:X:X:X:X:X:X:X:X:X",
":X:X:X:X:X:X:X:X|.M.n.n.c 4 0.9 G.H d <.i y.2.>.i O - @.2.4.- 7.7.K H B ( n.n.n.:X:X:X:X:X:X:X:X:X:X",
":X:X:X:X:X:X:X:X=Xn.n.n. .x 0.9 G.H d <.- z.2.2.2.5 i <.2.g.2 7.7.Y B C c.n.m.}.-X;X:X:X:X:X:X:X:X:X",
":X:X:X:X:X:X:X:X-X'.B.m.n.b.K > p.K +.<.$ t.2.2.2.- s <.=.y.1 0.6.K C n.n.n.'.=X=X-X:X:X:X:X:X:X:X:X",
":X:X:X:X:X:X:X=X=X.X}.'.n.n.| k 8.5.#.6 X $.2.*.2.+ d >.f @.H I Y  .b.n.n.n. X=X=X=X=X:X:X:X:X:X:X:X",
":X:X:X:X:X:X-X=X=X=XB. Xn.n.n.n.D > 1 P > r 2.i >.O a 2 O < o k b.n.n.n.m.}.=X=X=X=X=X-X:X:X:X:X:X:X",
":X:X:X:X;X-X=X=X=X=X=X.X'.n.n.n.n.| / C x + 6 O + # O 3 C l | b.n.n.n.n.{.=X=X=X=X=X=X=X-X;X:X:X:X:X",
":X:X:X:X-X=X=X=X=X=X=X=X=X.XB.n.n.n.n.n.n.c.c.c.c.c.c.c.n.n.n.n.N.n.n.'.=X=X=X=X=X=X=X=X=X-X:X:X:X:X",
":X:X:X-X=X=X=X=X=X=X=X=X=X=X.XB.n.n.m.n.n.n.n.n.n.N.N.n.n.n.n.n.{.}.}.=X=X=X=X=X=X=X=X=X=X=X-X:X:X:X",
":X;X-X=X=X=X=X=X=X=X=X=X=X=X=X=X}.{..X[.B.N.'.N.N. X}.N.'.}.'.[..X=X=X=X=X=X=X=X=X=X=X=X=X=X=X-X;X:X",
":X-X=X=X=X=X=X=X=X=X=X=X=X=X=X=X=X=X=X=X=X=X=X=X=X=X=X=X=X=X=X=X=X=X=X=X=X=X=X=X=X=X=X=X=X=X=X=X-X;X",
"=X=X=X=X=X=X=X=X=X=X=X=X=X=X=X=X=X=X=X=X=X=X=X=X=X=X=X=X=X=X=X=X=X=X=X=X=X=X=X=X=X=X=X=X=X=X=X=X=X=X"
};
