/* XPM */
static char *_f78f23986974b9db6c9e876e303915aZLCWPvYbTt0fWfjZ[] = {
/* columns rows colors chars-per-pixel */
"50 50 135 2 ",
"   c #733E39",
".  c #7D3F38",
"X  c #39553F",
"o  c #56493C",
"O  c #42513E",
"+  c #5D573E",
"@  c #5F5A3F",
"#  c #68473A",
"$  c #265C42",
"%  c #2D6943",
"&  c #3D664C",
"*  c #33694C",
"=  c #34694D",
"-  c #357846",
";  c #387D47",
":  c #377649",
">  c #3E7653",
",  c #496B51",
"<  c #417657",
"1  c #487D5C",
"2  c #824037",
"3  c #864136",
"4  c #834536",
"5  c #8F4235",
"6  c #984434",
"7  c #9D4E32",
"8  c #B74D2F",
"9  c #BE4A2F",
"0  c #B9522E",
"q  c #A24533",
"w  c #AB4731",
"e  c #AF4830",
"r  c #B44930",
"t  c #BA4930",
"y  c #A55330",
"u  c #82613A",
"i  c #A76837",
"p  c #C54F2D",
"a  c #C1562D",
"s  c #C5592C",
"d  c #CA592B",
"f  c #D35B29",
"g  c #C65730",
"h  c #DE6327",
"j  c #D06129",
"k  c #DA6028",
"l  c #D66828",
"z  c #C46732",
"x  c #CE6330",
"c  c #C86539",
"v  c #D66F30",
"b  c #C9703F",
"n  c #DE7C31",
"m  c #E16527",
"M  c #E86B25",
"N  c #F37323",
"B  c #F77622",
"V  c #F07024",
"C  c #F87D24",
"Z  c #995746",
"A  c #995A4A",
"S  c #8F6C55",
"D  c #9A6151",
"F  c #B66B49",
"G  c #BE784A",
"H  c #A46A57",
"J  c #B27B56",
"K  c #8B7D61",
"L  c #B87C63",
"P  c #C17E62",
"I  c #3B8347",
"U  c #3E8948",
"Y  c #408D48",
"T  c #439149",
"R  c #459548",
"E  c #4FA449",
"W  c #51A94B",
"Q  c #53AC4A",
"!  c #54AC4A",
"~  c #58B44B",
"^  c #5BB94B",
"/  c #4F8362",
"(  c #6A9D76",
")  c #5FC04C",
"_  c #63C74D",
"`  c #C98435",
"'  c #DC8633",
"]  c #D88634",
"[  c #DA8B33",
"{  c #DB9235",
"}  c #F98427",
"|  c #F4942F",
" . c #FB992D",
".. c #E58531",
"X. c #E68932",
"o. c #EA8F33",
"O. c #EE9532",
"+. c #F29B32",
"@. c #F6A133",
"#. c #FCA030",
"$. c #FAA733",
"%. c #FDA732",
"&. c #FEAE34",
"*. c #838167",
"=. c #898568",
"-. c #918366",
";. c #968465",
":. c #8D9674",
">. c #A88762",
",. c #AE8B63",
"<. c #AA9B70",
"1. c #A89D7A",
"2. c #9FA77C",
"3. c #A6AB7E",
"4. c #C6844A",
"5. c #C28569",
"6. c #86B88C",
"7. c #99BA8C",
"8. c #9EBF8F",
"9. c #8CBE91",
"0. c #99BD91",
"q. c #A2A580",
"w. c #AAA580",
"e. c #A4AD85",
"r. c #A5B385",
"t. c #A3BC8B",
"y. c #96C193",
"u. c #93C596",
"i. c #95C696",
"p. c #9CC392",
"a. c #9DCB97",
"s. c #9DCB98",
"d. c #9FCC98",
"f. c #A3C392",
"g. c #A1C491",
/* pixels */
"i.u.u.u.u.u.u.u.u.u.u.u.u.u.u.u.u.u.u.u.u.u.u.u.u.u.u.u.u.u.u.u.u.u.u.u.u.u.u.u.u.u.u.u.u.u.u.u.u.i.",
"s.i.u.u.u.u.u.u.u.u.u.u.u.u.u.u.u.u.u.u.u.u.u.u.u.u.u.u.u.u.u.u.u.u.u.u.u.u.u.u.u.u.u.u.u.u.u.u.i.a.",
"d.a.i.u.u.u.u.u.u.u.u.u.u.u.u.u.u.u.u.u.u.u.u.u.u.u.u.u.u.u.u.u.u.u.u.u.u.u.u.u.u.u.u.u.u.u.u.i.a.d.",
"d.d.a.i.u.u.u.u.u.u.u.u.u.u.u.u.u.u.u.u.u.u.u.u.u.u.u.u.u.u.u.u.u.u.u.u.u.u.u.u.u.u.u.u.u.u.i.a.d.d.",
"d.d.d.s.i.u.u.u.u.u.u.u.u.u.u.u.u.u.u.u.u.u.u.u.u.u.u.u.u.u.u.u.u.u.u.u.u.u.u.u.u.u.u.u.u.i.s.d.d.d.",
"d.d.d.d.a.i.u.u.u.u.u.u.u.u.u.u.u.u.u.u.u.u.u.u.u.u.u.u.u.u.u.u.u.u.u.u.u.u.u.u.u.u.u.u.i.a.d.d.d.d.",
"d.d.d.d.d.a.i.u.u.u.u.u.u.u.u.u.u.u.u.u.u.u.u.u.u.u.u.u.u.u.u.u.u.u.u.u.u.u.u.u.u.u.u.i.a.d.d.d.d.d.",
"d.d.d.d.d.d.d.i.u.u.u.u.u.u.u.u.u.u.u.u.u.u.u.u.u.u.u.u.u.u.u.u.u.u.u.u.u.u.u.u.u.u.i.d.d.d.d.d.d.d.",
"d.d.d.d.d.d.d.s.i.u.u.u.u.u.u.u.u.u.u.u.u.u.u.u.u.u.u.u.u.u.u.u.u.u.u.u.u.u.u.u.u.i.s.d.d.d.d.d.d.d.",
"d.d.d.d.d.d.d.d.a.i.u.u.u.u.u.u.u.u.u.u.u.u.u.u.u.u.u.u.u.u.u.u.u.u.u.u.u.u.u.u.i.a.d.d.d.d.d.d.d.d.",
"d.d.d.d.d.d.d.d.d.a.i.u.u.u.u.u.u.u.u.u.u.u.u.u.u.u.u.u.u.u.u.u.u.u.u.u.u.u.u.i.a.d.d.d.d.d.d.d.d.d.",
"d.d.d.d.d.d.d.d.d.d.s.i.u.u.u.u.u.u.u.u.u.u.1 * * < u.u.u.u.u.u.u.u.u.u.u.u.i.d.d.d.d.d.d.d.d.d.d.d.",
"d.d.d.d.d.d.d.d.d.d.d.s.i.u.u.u.u.u.u.u.u.u.< $ $ = u.u.u.u.u.u.u.u.u.u.u.i.a.d.d.d.d.d.d.d.d.d.d.d.",
"d.d.d.d.d.d.d.d.d.d.d.d.a.i.u.u.u.u.u.u./ $ Q _ _ ^ $ < u.u.u.u.u.u.u.u.i.a.d.d.d.d.d.d.d.d.d.d.d.d.",
"d.d.d.d.d.d.d.d.d.d.d.d.d.d.i.u.u.u.u.u./ $ E ) _ ^ % > 6.9.u.u.u.u.u.i.d.d.d.d.d.d.d.d.d.d.d.d.d.d.",
"d.d.d.d.d.d.d.d.d.d.d.d.d.d.s.i.u.u.u.u./ $ ; U ) _ _ ! $ / u.u.u.u.i.s.d.d.d.d.d.d.d.d.d.d.d.d.d.d.",
"d.d.d.d.d.d.d.d.d.d.d.d.d.d.d.a.i.u.u.u.( / : - W ~ _ ! $ / u.u.u.i.a.d.d.d.d.d.d.d.d.d.d.d.d.d.d.d.",
"d.d.d.d.d.d.d.d.d.d.d.d.d.d.d.d.a.i.u.u.u.u.< $ I T _ ! $ / u.u.i.a.d.d.d.d.d.d.d.d.d.d.d.d.d.d.d.d.",
"d.d.d.d.d.d.d.d.d.d.d.d.d.d.d.d.d.d.2.>.-.*.& $ I Y W R $ , *.;.,.r.d.d.d.d.d.d.d.d.d.d.d.d.d.d.d.d.",
"d.d.d.d.d.d.d.d.d.d.d.d.d.d.d.d.d.d.,.9 5   X $ I U U ; $ O   6 9 <.d.d.d.d.d.d.d.d.d.d.d.d.d.d.d.d.",
"d.d.d.d.d.d.d.d.d.d.d.d.d.d.d.d.3.J b m 0 q # o + @ @ + o u ` ] X.4.J g.d.d.d.d.d.d.d.d.d.d.d.d.d.d.",
"d.d.d.d.d.d.d.d.d.d.d.d.d.d.d.d.<.9 k B f 9 3             i &.&.&.v 9 t.d.d.d.d.d.d.d.d.d.d.d.d.d.d.",
"d.d.d.d.d.d.d.d.d.d.d.d.d.d.g.F c M V B f 9 j l [ { { { { ' x X.&.+.O.G F d.d.d.d.d.d.d.d.d.d.d.d.d.",
"d.d.d.d.d.d.d.d.d.d.d.d.d.d.t.9 f B B B f 9 M B %.&.&.&.&.X.9 n &.&.&.g 9 d.d.d.d.d.d.d.d.d.d.d.d.d.",
"d.d.d.d.d.d.d.d.d.d.d.d.d.d.t.9 f B h p m N N B C } &.&.&.$.@.n g o.&.g 9 d.d.d.d.d.d.d.d.d.d.d.d.d.",
"d.d.d.d.d.d.d.d.d.d.d.d.d.d.t.9 f B k 9 m B B B B C &.&.&.&.&.n 9 ..%.g 9 d.d.d.d.d.d.d.d.d.d.d.d.d.",
"d.d.d.d.d.d.d.d.d.d.d.d.d.d.t.9 f B k 9 m B B B B C &.&.&.&.&.n 9 m B p 9 d.d.d.d.d.d.d.d.d.d.d.d.d.",
"d.d.d.d.d.d.d.d.d.d.d.d.d.d.t.w s B k 9 m B B B B C #.%.&.&.&.n 9 m B 8 w d.d.d.d.d.d.d.d.d.d.d.d.d.",
"d.d.d.d.d.d.d.d.d.d.d.d.d.d.7.  y B k 9 m B B B B B B } &.&.&.n 9 m B 4   d.d.d.d.d.d.d.d.d.d.d.d.d.",
"d.d.d.d.d.d.d.d.d.d.d.d.d.d.7.  7 m a q d m N B B B B C  .| X.z q d m 2   d.d.d.d.d.d.d.d.d.d.d.d.d.",
"d.d.d.d.d.d.d.d.d.d.d.d.d.d.7.  5 9 6   q 9 M B B B B B B m 9 6   q 9 .   d.d.d.d.d.d.d.d.d.d.d.d.d.",
"d.d.d.d.d.d.d.d.d.d.d.d.d.d.p.=.S 6 6 6 6 6 d k k k k k k a 6 6 6 6 6 K =.d.d.d.d.d.d.d.d.d.d.d.d.d.",
"d.d.d.d.d.d.d.d.d.d.d.d.d.d.d.d.:.  6 9 5   w 9 9 9 9 9 9 q   6 9 5   7.d.d.d.d.d.d.d.d.d.d.d.d.d.d.",
"d.d.d.d.d.d.d.d.d.d.d.d.d.d.d.s.2.H Z 5 .   3 5 t 9 9 e 5 3   2 5 A H 8.d.d.d.d.d.d.d.d.d.d.d.d.d.d.",
"d.d.d.d.d.d.d.d.d.d.d.d.d.d.s.i.e.5.D           r 9 9 w           H 5.f.d.d.d.d.d.d.d.d.d.d.d.d.d.d.",
"d.d.d.d.d.d.d.d.d.d.d.d.d.s.i.u.y.0.1.L L L L L P P P P L L L L L q.0.i.s.d.d.d.d.d.d.d.d.d.d.d.d.d.",
"d.d.d.d.d.d.d.d.d.d.d.d.s.i.u.u.u.u.w.5.5.5.5.5.5.5.5.5.5.5.5.5.5.e.u.u.i.s.d.d.d.d.d.d.d.d.d.d.d.d.",
"d.d.d.d.d.d.d.d.d.d.d.s.i.u.u.u.u.u.u.u.u.u.u.u.u.u.u.u.u.u.u.u.u.u.u.u.u.i.a.d.d.d.d.d.d.d.d.d.d.d.",
"d.d.d.d.d.d.d.d.d.d.s.i.u.u.u.u.u.u.u.u.u.u.u.u.u.u.u.u.u.u.u.u.u.u.u.u.u.u.i.d.d.d.d.d.d.d.d.d.d.d.",
"d.d.d.d.d.d.d.d.d.s.i.u.u.u.u.u.u.u.u.u.u.u.u.u.u.u.u.u.u.u.u.u.u.u.u.u.u.u.u.i.s.d.d.d.d.d.d.d.d.d.",
"d.d.d.d.d.d.d.d.s.i.u.u.u.u.u.u.u.u.u.u.u.u.u.u.u.u.u.u.u.u.u.u.u.u.u.u.u.u.u.u.i.s.d.d.d.d.d.d.d.d.",
"d.d.d.d.d.d.d.s.i.u.u.u.u.u.u.u.u.u.u.u.u.u.u.u.u.u.u.u.u.u.u.u.u.u.u.u.u.u.u.u.u.i.s.d.d.d.d.d.d.d.",
"d.d.d.d.d.d.d.i.u.u.u.u.u.u.u.u.u.u.u.u.u.u.u.u.u.u.u.u.u.u.u.u.u.u.u.u.u.u.u.u.u.u.i.d.d.d.d.d.d.d.",
"d.d.d.d.d.s.i.u.u.u.u.u.u.u.u.u.u.u.u.u.u.u.u.u.u.u.u.u.u.u.u.u.u.u.u.u.u.u.u.u.u.u.u.i.s.d.d.d.d.d.",
"d.d.d.d.a.i.u.u.u.u.u.u.u.u.u.u.u.u.u.u.u.u.u.u.u.u.u.u.u.u.u.u.u.u.u.u.u.u.u.u.u.u.u.u.i.a.d.d.d.d.",
"d.d.d.s.i.u.u.u.u.u.u.u.u.u.u.u.u.u.u.u.u.u.u.u.u.u.u.u.u.u.u.u.u.u.u.u.u.u.u.u.u.u.u.u.u.i.s.d.d.d.",
"d.d.s.i.u.u.u.u.u.u.u.u.u.u.u.u.u.u.u.u.u.u.u.u.u.u.u.u.u.u.u.u.u.u.u.u.u.u.u.u.u.u.u.u.u.u.i.s.d.d.",
"d.s.i.u.u.u.u.u.u.u.u.u.u.u.u.u.u.u.u.u.u.u.u.u.u.u.u.u.u.u.u.u.u.u.u.u.u.u.u.u.u.u.u.u.u.u.u.i.s.d.",
"s.i.u.u.u.u.u.u.u.u.u.u.u.u.u.u.u.u.u.u.u.u.u.u.u.u.u.u.u.u.u.u.u.u.u.u.u.u.u.u.u.u.u.u.u.u.u.u.i.a.",
"i.u.u.u.u.u.u.u.u.u.u.u.u.u.u.u.u.u.u.u.u.u.u.u.u.u.u.u.u.u.u.u.u.u.u.u.u.u.u.u.u.u.u.u.u.u.u.u.u.i."
};
