/* XPM */
static char *result[] = {
/* columns rows colors chars-per-pixel */
"50 50 244 2 ",
"   c #211F30",
".  c #301E34",
"X  c #1E272F",
"o  c #20292E",
"O  c #222C2C",
"+  c #2B2F2E",
"@  c #233927",
"#  c #233F26",
"$  c #233329",
"%  c #22322A",
"&  c #233928",
"*  c #30372C",
"=  c #353F2B",
"-  c #282936",
";  c #392433",
":  c #3A2533",
">  c #293D30",
",  c #2D313D",
"<  c #2F343D",
"1  c #30343D",
"2  c #31353D",
"3  c #401E37",
"4  c #431F37",
"5  c #4F1E3A",
"6  c #5A1E3C",
"7  c #5E1D3E",
"8  c #492237",
"9  c #4C2336",
"0  c #512936",
"q  c #522937",
"w  c #522A37",
"e  c #612539",
"r  c #6D213F",
"t  c #6D263D",
"y  c #6A2F3A",
"u  c #76273C",
"i  c #7C2E3C",
"p  c #24521F",
"a  c #255F1B",
"s  c #136E1F",
"d  c #136F1F",
"f  c #17731C",
"g  c #266C17",
"h  c #2F631D",
"j  c #2F691B",
"k  c #277913",
"l  c #277F11",
"z  c #2D701F",
"x  c #257B1A",
"c  c #2B7F1A",
"v  c #234523",
"b  c #314A26",
"n  c #3A472A",
"m  c #3F4F28",
"M  c #2B5627",
"N  c #2B5628",
"B  c #325722",
"V  c #3F5627",
"C  c #3F5028",
"Z  c #3F5029",
"A  c #335B31",
"S  c #0F6923",
"D  c #076029",
"F  c #136E20",
"G  c #34682C",
"H  c #217026",
"J  c #2D7020",
"K  c #2F7824",
"L  c #42761D",
"P  c #445827",
"I  c #45563F",
"U  c #496026",
"Y  c #4E6825",
"T  c #4C622D",
"R  c #537024",
"E  c #597823",
"W  c #56732C",
"Q  c #363E43",
"!  c #383F43",
"~  c #3D3B49",
"^  c #6E1C42",
"/  c #711E41",
"(  c #7D1C45",
")  c #7D1C46",
"_  c #703B46",
"`  c #3D4849",
"'  c #3F4949",
"]  c #3E484A",
"[  c #404A4A",
"{  c #414A4A",
"}  c #485947",
"|  c #45594E",
" . c #4B5D56",
".. c #4C5D56",
"X. c #505F57",
"o. c #784447",
"O. c #754D4B",
"+. c #695855",
"@. c #53675C",
"#. c #536E5B",
"$. c #55695D",
"%. c #586B5D",
"&. c #586B5E",
"*. c #58705C",
"=. c #59715C",
"-. c #64635A",
";. c #5A7263",
":. c #607564",
">. c #617664",
",. c #81283D",
"<. c #8C293F",
"1. c #8D2B3F",
"2. c #8F2D3F",
"3. c #922F3F",
"4. c #81333C",
"5. c #82343D",
"6. c #95333F",
"7. c #8C1C49",
"8. c #921E49",
"9. c #9C1B4D",
"0. c #A21D4C",
"q. c #A21E4C",
"w. c #8C2243",
"e. c #9E2447",
"r. c #972847",
"t. c #993840",
"y. c #9B3940",
"u. c #9B3941",
"i. c #A12B42",
"p. c #AE224B",
"a. c #AE234B",
"s. c #AE274C",
"d. c #B62E45",
"f. c #BE2E47",
"g. c #B0274B",
"h. c #B4294B",
"j. c #BC2B4A",
"k. c #C02A49",
"l. c #C62D49",
"z. c #C52E49",
"x. c #C92F49",
"c. c #CB3947",
"v. c #CC3048",
"b. c #CF3348",
"n. c #D03749",
"m. c #D23749",
"M. c #D53A49",
"N. c #D83D49",
"B. c #DB4049",
"V. c #E14649",
"C. c #E1474A",
"Z. c #E44A4A",
"A. c #28860F",
"S. c #318910",
"D. c #318A11",
"F. c #328A11",
"G. c #3B8D13",
"H. c #3F8815",
"J. c #3C8023",
"K. c #438F14",
"L. c #478419",
"P. c #43871E",
"I. c #498E19",
"U. c #4F8F1D",
"Y. c #518F19",
"T. c #449015",
"R. c #4D9316",
"E. c #569717",
"W. c #5B9918",
"Q. c #5F9A19",
"!. c #5F9A1A",
"~. c #68911F",
"^. c #68971D",
"/. c #609A1A",
"(. c #659C1A",
"). c #689D1B",
"_. c #699D1B",
"`. c #699D1C",
"'. c #6D9F1C",
"]. c #6EA01C",
"[. c #72A11D",
"{. c #75A41F",
"}. c #418520",
"|. c #438422",
" X c #5D8021",
".X c #5E8022",
"XX c #5E8122",
"oX c #508D21",
"OX c #579020",
"+X c #709C21",
"@X c #698335",
"#X c #728B3B",
"$X c #78A621",
"%X c #68806B",
"&X c #688770",
"*X c #708B71",
"=X c #789677",
"-X c #7C9478",
";X c #769B7C",
":X c #779B7D",
">X c #779C7D",
",X c #68A076",
"<X c #7FA07E",
"1X c #84B12B",
"2X c #8BB62F",
"3X c #91BB33",
"4X c #91BC34",
"5X c #94BE36",
"6X c #97C138",
"7X c #98C139",
"8X c #9BC43B",
"9X c #9DC63E",
"0X c #80A17E",
"qX c #A1C940",
"wX c #A4CC42",
"eX c #7DA583",
"rX c #7EA683",
"tX c #87AB85",
"yX c #85B089",
"uX c #85B189",
"iX c #8FB68B",
"pX c #8CBB8F",
"aX c #90B78B",
"sX c #87B491",
"dX c #8EBC90",
"fX c #97C191",
"gX c #93C596",
"hX c #95C696",
"jX c #95C796",
"kX c #94C697",
"lX c #95C697",
"zX c #96C696",
"xX c #96C796",
"cX c #97C796",
"vX c #96C697",
"bX c #96C797",
"nX c #9DCB97",
"mX c #9ECB97",
"MX c #9DCB98",
"NX c #9ECB98",
"BX c #9FCC98",
"VX c #A2C3AF",
"CX c #C1D7CA",
"ZX c white",
/* pixels */
"hXgXgXgXgXgXgXgXgXgXgXgXgXgXgXgXgXgXgXgXgXgXgXgXgXgXgXgXgXgXgXgXgXgXgXgXgXgXgXgXgXgXgXgXgXgXgXgXgXhX",
"MXxXgXgXgXpXuXuXuXuXuXgXgXgXgXgXpXuXuXuXuXuXuXuXuXuXuXpXgXgXgXgXgXpXuXuXuXuXuXuXpXgXgXgXgXgXgXgXcXmX",
"BXnXzXgXgX;.          yXgXgXgXgX&X                    ] gXgXgXgXgX..            ] gXgXgXgXgXgXzXmXBX",
"BXBXmXdX>X-.0 0 0 0 0 -X>XgXgX>X*.= = = = = = = = = = I >XrXgXyX>X} = = = = = = I >XrXgXgXgXxXmXBXBX",
"BXBXBX<X  5.Z.Z.Z.Z.Z.;   gXyX  C [.[.[.[.[.[.[.[.[.[.XX  ..gX;.  R [.[.[.[.[.[.XX  ..gXgXcXNXBXBXBX",
"BXBXBX<X  i N.N.N.N.N.r 7 ;.@.  * U U U U U U U U U U m   Q ;.`   n U U U U U U m   ..gXxXmXBXBXBXBX",
"BXBXBX<X  u v.v.v.v.v.0.9.                                                          ..hXnXBXBXBXBXBX",
"BXBXBXfX*X+.e e e e.a.6 5 ^ / <.3.y.y.y.y.y.2.<.t.t.<.<.<.<.<.<.<.6.y.1.<.y.y.y.y.y.o.X.=XBXBXBXBXBX",
"BXBXBXBXBX:.      ) 9..   9.q.v.M.Z.Z.Z.Z.Z.m.v.C.C.v.v.v.v.v.v.v.B.Z.b.v.Z.Z.Z.Z.Z.y.  :.BXBXBXBXBX",
"BXBXBXtX{ _ i.w.( 5 3     3 4 9 t s.s.s.s.s.z.v.h.g.v.v.v.v.v.v.v.j.s.l.v.s.s.s.r.w :   :.BXBXBXBXBX",
"BXBXBX<X  u v.p.9.3             5 9.9.9.9.9.k.v.0.q.v.v.v.v.v.v.v.p.9.l.v.9.9.9.(       :.BXBXBXBXBX",
"BXBXBX<X  4.V.n.l.8   ) 7.7.8.d.f.l.l.l.l.l.x.v.l.l.v.v.v.v.v.v.v.x.l.v.v.l.l.l.l.d.,.  :.BXBXBXBXBX",
"BXBXBX<X  5.Z.M.v.9   7.9.9.q.v.v.v.v.v.v.v.v.v.v.v.v.v.v.v.v.v.v.v.v.v.v.v.v.v.v.v.<.  :.BXBXBXBXBX",
"BXBXBX<X  5.Z.M.v.9                                                                     :.BXBXBXBXBX",
"BXBXBX<X  5.Z.c.d.9   O O O O O O O o X , ~ ~ ~ ~ ~ ~ , X o O o X , ~ ~ ~ ~ ~ ~ , X o O =.iXBXBXBXBX",
"BXBXBX<X  5.Z.y       k A.A.A.A.A.A.f D VXZXZXZXZXZXZXCXD d A.f D VXZXZXZXZXZXZXCXD d A.p   0XBXBXBX",
"BXBXBXaXX.O.u.q   # v H.K.K.K.K.K.K.c F ,XVXVXVXVXVXVXsXF x K.c F ,XVXVXVXVXVXVXsXF x K.B   0XBXBXBX",
"BXBXBXBXBX:.      g A.`.[.[.[.[.[.[.R.A.s D D D D D D S A.T.[.R.A.s D D D D D D S A.T.[.U   0XBXBXBX",
"BXBXBXBXBX0X:.!   L R.].[.[.[.[.[.[.Q.R.P.J.J.J.J.J.J.}.R.W.[.Q.R.P.J.J.J.J.J.J.}.R.W.[.U   0XBXBXBX",
"BXBXBXBXBXBXBXX.   X[.[.[.[.[.[.[.[.[.[.[.[.[.[.[.[.[.[.[.[.[.[.[.[.[.[.[.[.[.[.[.[.[.[.U   0XBXBXBX",
"BXBXBXBXBXBXBXX.   X[.[.[.[.[.[.[.[.oXK K K K K K K K K K K K K K K K K K K K K |.[.[.[.U   0XBXBXBX",
"BXBXBXBXBXBXBXX.   X[.[.[.[.[.[.[.[.J.D D D D D D D D D D D D D D D D D D D D D H [.[.[.U   0XBXBXBX",
"BXBXBXBXBXBXBXX.   X[.[.[.[.[.[.!.G.I.OXOXOXOXOXOXOXOXOXOXOXOXOXOXOXOXOXOXOXOXOXU.G.R.[.U   0XBXBXBX",
"BXBXBXBXBXBXBXX.   X[.[.[.[.[.[.E.A.R.[.[.[.[.[.[.[.[.[.[.[.[.[.[.[.[.[.[.[.[.[./.A.T.[.U   0XBXBXBX",
"BXBXBXBXBXBXBXX.   X[.[.[.[.[.[.'.).'.[.[.[.[.[.[._.F.F.F.F.F.F.F.F.F.`.[.[.[.[.[.).'.[.U   0XBXBXBX",
"BXBXBXBXBXBXBX&.2 R ~.`.`.[.[.[.[.[.[.[.[.[.[.[.[._.S.S.S.S.S.S.S.S.S.`.[.[.[.[.].`.^.~.T 2 0XBXBXBX",
"BXBXBXBXBXBXBXBXBX[   k A.[.[.[.[.[.[.[.[.[.[.[.[.[.[.[.[.[.[.[.[.[.[.[.[.[.[.[./.A.a   :.BXBXBXBXBX",
"BXBXBXBXBXBXBXBXBX&.[ z g /././.(.[.[.[.[.[.[.[.[.[.[.[.[.[.[.[.[.[.[.[.[./././.Y.g M [ *XBXBXBXBXBX",
"BXBXBXBXBXBXBXBXBXBXBX2   A.A.A.T.[.[.[.[.[.[.[.[.[.[.[.[.[.[.[.[.[.[.[.[.A.A.A.g   X.BXBXBXBXBXBXBX",
"BXBXBXBXBXBXBXBXBXBXBX%.X.a a a L [.[.[.[.[.[.[.[.[.[.[.[.[.[.[.[.[.[.[.[.a a a G X.*XBXBXBXBXBXBXBX",
"BXBXBXBXBXBXBXBXBXBXBXBXBX      C [.[.[.[.[.[.[.[.[.[.[.[.[.[.[.[.[.[.[.[.      { BXBXBXBXBXBXBXBXBX",
"BXBXBXBXBXBXBXBXBXBXBX%X:.U U U E [.[.[.[.[.1X2X2X2X2X2X2X2X2X2X2X2X2X{.[.U P   1 :.=XBXBXBXBXBXBXBX",
"BXBXBXBXBXBXBXBXBXBXBX2   [.[.[.[.[.[.[.[.[.6XwXwXwXwXwXwXwXwXwXwXwXwX$X[.[.~.      X.BXBXBXBXBXBXBX",
"BXBXBXBXBXBXBXBXBX>.X.W R [.[.[.[.[.[.[.1X3X9XwXwXwXwXwXwXwXwXwXwXwXwX5X3X[.~.  % a A X.=XBXBXBXBXBX",
"BXBXBXBXBXBXBXBXBX[   ~.[.[.[.[.[.[.[.[.4XwXwXwXwXwXwXwXwXwXwXwXwXwXwXwXwX[.~.  & A.a   :.BXBXBXBXBX",
"BXBXBXBXBXBXBX&.2 J k `.[.[._.F.j + Y [.4XwXwXwXwXwXwXwXwXwXwXwXwXwXwXwXwX[.~.  & A.l k N 2 tXBXBXBX",
"BXBXBXBXBXBXBXX.  g A.`.[.[._.A.a   U [.4XwXwXwXwXwXwXwXwXwXwXwXwXwXwXwXwX[.~.  & A.A.A.p   0XBXBXBX",
"BXBXBXBXBXBXBXX.  g A.A.A.A.k   C [.[.[.4XwXwXwXwXwXwXwXwXwXwXwXwXwXwXwXwX[.~.  & A.A.A.p   0XBXBXBX",
"BXBXBXBXBXBXBX&.2 a k k k k g O V [.[.[.4XwXwXwXwXwXwXwXwXwXwXwXwXwXwXwXwX[.~.  $ k k k M 2 0XBXBXBX",
"BXBXBXBXBXBXBXBXBX[         O A.T.[.[.[.4XwXwXwXwXwXwXwXwXwXwXwXwXwXwXwXwX[.~.          :.BXBXBXBXBX",
"BXBXBXBXBXBXBXBXMX$.` ` `   O A.T.[.[.[.2X7XqXwXwXwXwXwXwXwXwXwXwXwXwX8X7X[.~.  - ' [ [ *XBXBXBXBXBX",
"BXBXBXBXBXBXBXMXxXgXgXgXgX  O A.T.[.[.[.[.[.6XwXwXwXwXwXwXwXwXwXwXwXwX$X[.[.~.  ] xXNXBXBXBXBXBXBXBX",
"BXBXBXBXBXBXBXkXgXgXgXgXgX  O A.T.[.[.[..XR @X#X#X#X#X#X#X#X#X#X#X#X#X+X[.[.~.  ] gXkXBXBXBXBXBXBXBX",
"BXBXBXBXBXNXlXgXgXgXgXgXgX  O A.T.[.[.[.Z                             ~.[.[.~.  ] gXgXjXNXBXBXBXBXBX",
"BXBXBXBXnXxXgXgXgXgXgXgXgX  O A.T.[.Q.R.b    .;.;.;.;.;.;.;.;.`   # p ^.[.R.L.  ] gXgXgXxXmXBXBXBXBX",
"BXBXBXNXhXgXgXgXgXgXgXgXgX  O A.T.[.R.A.v   :XgXgXgXgXgXgXgXgX;.  a A.`.[.A.k   ] gXgXgXgXjXNXBXBXBX",
"BXBXNXvXgXgXgXgXgXgXgXgXgX  O A.D.G.h @ #.;XpXgXgXgXgXgXgXgXgX;.  a A.G.G.@ > ;XeXgXgXgXgXgXbXNXBXBX",
"BXMXbXgXgXgXgXgXgXgXgXgXgX  O A.A.A.p   &XgXgXgXgXgXgXgXgXgXgX;.  a A.A.A.  < gXgXgXgXgXgXgXgXbXNXBX",
"MXhXgXgXgXgXgXgXgXgXgXgXgXyX;XO O O #.yXpXgXgXgXgXgXgXgXgXgXgXpXyX| O O O yXyXgXgXgXgXgXgXgXgXgXxXmX",
"lXgXgXgXgXgXgXgXgXgXgXgXgXgXyX      ;.gXgXgXgXgXgXgXgXgXgXgXgXgXgX..      gXgXgXgXgXgXgXgXgXgXgXgXjX"
};
