/* XPM */
static char *result[] = {
/* columns rows colors chars-per-pixel */
"50 50 17 1 ",
"  c #93C596",
". c #94C696",
"X c #95C696",
"o c #95C796",
"O c #94C697",
"+ c #95C697",
"@ c #96C696",
"# c #96C796",
"$ c #97C796",
"% c #96C697",
"& c #96C797",
"* c #9DCA97",
"= c #9DCB97",
"- c #9ECB97",
"; c #9DCB98",
": c #9ECB98",
"> c #9FCC98",
/* pixels */
"X                                                X",
";#                                              $-",
">=@                                            @->",
">>-@                                          #->>",
">>>:#                                        $:>>>",
">>>>=#                                      #->>>>",
">>>>>=X                                    X=>>>>>",
">>>>>>>X                                  X>>>>>>>",
">>>>>>>;#                                #:>>>>>>>",
">>>>>>>>=@                              @->>>>>>>>",
">>>>>>>>>-@                            #->>>>>>>>>",
">>>>>>>>>>;X                          X>>>>>>>>>>>",
">>>>>>>>>>>;#                        #->>>>>>>>>>>",
">>>>>>>>>>>>=X                      X=>>>>>>>>>>>>",
">>>>>>>>>>>>>>.                    #>>>>>>>>>>>>>>",
">>>>>>>>>>>>>>:#                  #:>>>>>>>>>>>>>>",
">>>>>>>>>>>>>>>=@                @->>>>>>>>>>>>>>>",
">>>>>>>>>>>>>>>>-.              #->>>>>>>>>>>>>>>>",
">>>>>>>>>>>>>>>>>>X            X>>>>>>>>>>>>>>>>>>",
">>>>>>>>>>>>>>>>>>;#          #->>>>>>>>>>>>>>>>>>",
">>>>>>>>>>>>>>>>>>>=X        @=>>>>>>>>>>>>>>>>>>>",
">>>>>>>>>>>>>>>>>>>>-@      #->>>>>>>>>>>>>>>>>>>>",
">>>>>>>>>>>>>>>>>>>>>:#    #:>>>>>>>>>>>>>>>>>>>>>",
">>>>>>>>>>>>>>>>>>>>>>=@  $->>>>>>>>>>>>>>>>>>>>>>",
">>>>>>>>>>>>>>>>>>>>>>>*XX=>>>>>>>>>>>>>>>>>>>>>>>",
">>>>>>>>>>>>>>>>>>>>>>>:+o:>>>>>>>>>>>>>>>>>>>>>>>",
">>>>>>>>>>>>>>>>>>>>>>=X  #=>>>>>>>>>>>>>>>>>>>>>>",
">>>>>>>>>>>>>>>>>>>>>:#    #:>>>>>>>>>>>>>>>>>>>>>",
">>>>>>>>>>>>>>>>>>>>:%      &:>>>>>>>>>>>>>>>>>>>>",
">>>>>>>>>>>>>>>>>>>;+        &;>>>>>>>>>>>>>>>>>>>",
">>>>>>>>>>>>>>>>>>;#          #->>>>>>>>>>>>>>>>>>",
">>>>>>>>>>>>>>>>>>+            o>>>>>>>>>>>>>>>>>>",
">>>>>>>>>>>>>>>>:.              o;>>>>>>>>>>>>>>>>",
">>>>>>>>>>>>>>>;&                &:>>>>>>>>>>>>>>>",
">>>>>>>>>>>>>>:#                  #:>>>>>>>>>>>>>>",
">>>>>>>>>>>>>:O                    &:>>>>>>>>>>>>>",
">>>>>>>>>>>>:+                      o:>>>>>>>>>>>>",
">>>>>>>>>>>;#                        #->>>>>>>>>>>",
">>>>>>>>>>:+                          o>>>>>>>>>>>",
">>>>>>>>>:.                            X:>>>>>>>>>",
">>>>>>>>;&                              &:>>>>>>>>",
">>>>>>>;#                                #:>>>>>>>",
">>>>>>>O                                  O>>>>>>>",
">>>>>:+                                    o:>>>>>",
">>>>=#                                      #->>>>",
">>>:X                                        o:>>>",
">>:%                                          &:>>",
">;&                                            &:>",
";X                                              #-",
"+                                                o"
};
